<svg xmlns="http://www.w3.org/2000/svg" xmlns:xlink="http://www.w3.org/1999/xlink" width="1080" zoomAndPan="magnify" viewBox="0 0 810 809.999993" height="1080" preserveAspectRatio="xMidYMid meet" version="1.0"><defs><clipPath id="e8f2c0ec7e"><path d="M 9 180 L 798 180 L 798 696 L 9 696 Z M 9 180 " clip-rule="nonzero"/></clipPath><clipPath id="0ab247f22f"><path d="M 835.425781 141.5 L 848.886719 680.582031 L 13.648438 701.441406 L 0.183594 162.359375 Z M 835.425781 141.5 " clip-rule="nonzero"/></clipPath><clipPath id="70bd526387"><path d="M 835.425781 141.5 L 848.886719 680.582031 L 13.648438 701.441406 L 0.183594 162.359375 Z M 835.425781 141.5 " clip-rule="nonzero"/></clipPath><clipPath id="cfae7725c4"><path d="M 6 157 L 810 157 L 810 612 L 6 612 Z M 6 157 " clip-rule="nonzero"/></clipPath><clipPath id="336e0e4baf"><path d="M 835.425781 141.5 L 848.886719 680.582031 L 13.648438 701.441406 L 0.183594 162.359375 Z M 835.425781 141.5 " clip-rule="nonzero"/></clipPath><clipPath id="d10e4baf8e"><path d="M 835.425781 141.5 L 848.886719 680.582031 L 13.648438 701.441406 L 0.183594 162.359375 Z M 835.425781 141.5 " clip-rule="nonzero"/></clipPath></defs><g clip-path="url(#e8f2c0ec7e)"><g clip-path="url(#0ab247f22f)"><g clip-path="url(#70bd526387)"><path fill="#b43524" d="M 603.851562 483.328125 C 430.078125 487.667969 463.476562 690.347656 248.511719 695.714844 C -93.886719 704.265625 -41.023438 190.308594 238.226562 180.769531 C 352.761719 176.621094 387.089844 262.050781 492.644531 259.417969 C 636.8125 255.816406 792.371094 89.644531 797.003906 275.023438 C 800.988281 434.621094 684.972656 481.304688 603.851562 483.328125 Z M 603.851562 483.328125 " fill-opacity="1" fill-rule="nonzero"/></g></g></g><g clip-path="url(#cfae7725c4)"><g clip-path="url(#336e0e4baf)"><g clip-path="url(#d10e4baf8e)"><path fill="#ffffff" d="M 7.003906 423.957031 C 4.082031 306.808594 67.253906 179.378906 177.484375 159.652344 C 246.808594 147.515625 295.675781 184.710938 342.886719 220.585938 C 386.492188 253.75 431.597656 288.054688 494.015625 286.496094 C 554.800781 284.980469 589.578125 251.074219 623.238281 218.277344 C 651.144531 191.082031 677.507812 165.394531 715.585938 164.445312 C 784.878906 161.96875 835.484375 241.203125 839.261719 316.761719 C 842.78125 385.871094 807.792969 462.316406 699.414062 469.265625 C 689.960938 469.917969 680.5 470.078125 671.027344 469.746094 C 661.558594 469.414062 652.132812 468.59375 642.75 467.28125 C 633.363281 465.96875 624.074219 464.171875 614.878906 461.894531 C 605.679688 459.617188 596.625 456.867188 587.714844 453.648438 C 575.792969 449.28125 563.582031 445.964844 551.089844 443.703125 C 538.59375 441.441406 525.996094 440.269531 513.300781 440.179688 C 448.945312 441.789062 402.269531 480.738281 352.804688 521.980469 C 302.4375 564.039062 250.347656 607.492188 176.5 611.480469 C 84.191406 617.042969 21.574219 557.414062 9 451.957031 C 7.90625 442.742188 7.242188 433.378906 7.003906 423.957031 Z M 835.441406 321.445312 C 835.402344 319.949219 835.367188 318.453125 835.273438 316.957031 C 831.59375 243.300781 782.667969 166.027344 715.710938 168.445312 C 679.164062 169.355469 653.359375 194.515625 626.03125 221.144531 C 593.417969 252.921875 556.453125 288.9375 494.109375 290.496094 C 430.28125 292.089844 384.613281 257.359375 340.453125 223.769531 C 291.789062 186.753906 245.828125 151.789062 178.183594 163.589844 C 61.3125 184.503906 -1.652344 329.480469 12.976562 451.484375 C 25.265625 554.59375 86.3125 612.917969 176.269531 607.46875 C 248.792969 603.527344 300.394531 560.542969 350.25 518.9375 C 400.101562 477.332031 447.464844 437.863281 513.203125 436.222656 C 526.113281 436.292969 538.925781 437.476562 551.632812 439.765625 C 564.34375 442.058594 576.761719 445.429688 588.882812 449.875 C 597.683594 453.046875 606.621094 455.757812 615.699219 458.003906 C 624.777344 460.25 633.949219 462.019531 643.210938 463.3125 C 652.476562 464.605469 661.78125 465.417969 671.128906 465.746094 C 680.476562 466.070312 689.8125 465.914062 699.144531 465.269531 C 802.292969 458.644531 837.089844 387.476562 835.441406 321.445312 Z M 835.441406 321.445312 " fill-opacity="1" fill-rule="nonzero"/></g></g></g></svg>